<svg xmlns="http://www.w3.org/2000/svg" height="64" width="104"><path d="M0 0h29.7a39 39 0 0 0 0 64H0zm52 0a32 32 0 0 0 0 64 32 32 0 0 0 0-64m52 0H74.3a39 39 0 0 1 0 64H104z" fill="#F7931A"/><path d="M62.313 21.356c-1.436-4.058-5.373-4.557-10.004-3.824l-1.439-5.768-3.51.875 1.4 5.616c-.923.23-1.862.484-2.795.736l-1.409-5.653-3.509.875 1.437 5.767c-.756.205-1.5.405-2.227.587l-.005-.018-4.843 1.206.936 3.75s2.58-.697 2.55-.638c1.421-.354 2.09.356 2.402 1.035l1.639 6.57a3.03 3.03 0 0 1 .377-.067l-.37.093 2.294 9.205c.049.463-.036 1.242-1.03 1.492.055.028-2.552.635-2.552.635l.348 4.367 4.569-1.14c.85-.21 1.69-.404 2.513-.604l1.456 5.833 3.507-.873-1.439-5.772c.968-.22 1.902-.445 2.812-.673l1.43 5.746 3.511-.876-1.45-5.823c5.818-1.81 9.578-4.328 8.71-9.999-.7-4.566-3.296-6.034-6.847-6.003 1.777-1.544 2.595-3.688 1.538-6.657zm-1.802 13.699c1.09 4.359-6.499 5.724-8.878 6.32l-1.926-7.73c2.38-.593 9.671-3.137 10.804 1.41zM56.16 24.557c.987 3.967-5.353 5.056-7.335 5.55l-1.748-7.01c1.982-.494 8.05-2.677 9.083 1.46z" fill="#FFF"/></svg>