<svg xmlns="http://www.w3.org/2000/svg" height="94" width="390"><linearGradient y2="94" x2="0" gradientUnits="userSpaceOnUse" id="a"><stop offset="0" stop-color="#fff"/><stop offset="1" stop-color="#d9d9d9"/></linearGradient><rect ry="15" rx="15" height="92" width="388" y="1" x="1" stroke-width="2" stroke="#B3B3B3" fill="url(#a)"/><path d="M15 16h29.7a39 39 0 0 0 0 64H15zm52 0a32 32 0 0 0 0 64 32 32 0 0 0 0-64m52 0H89.3a39 39 0 0 1 0 64H119zm35.979 38.351q-2.34 0-4.797-.195t-4.446-.624l6.24-26.13q2.223-.429 4.64-.585 2.458-.156 4.486-.156 2.34 0 4.017.507 1.716.468 2.769 1.287 1.092.819 1.599 1.95.546 1.092.546 2.34 0 .858-.195 1.794-.156.936-.702 1.872-.507.897-1.443 1.716-.897.819-2.38 1.482 1.756.78 2.575 2.145.819 1.326.819 2.964 0 1.872-.741 3.627-.741 1.716-2.38 3.081-1.637 1.326-4.25 2.145-2.613.78-6.357.78zm-.546-12.168l-1.677 7.02q.624.117 1.56.195.975.039 1.794.039 1.17 0 2.3-.156 1.17-.195 2.068-.663.936-.468 1.52-1.287.586-.819.586-2.106 0-.546-.234-1.092-.195-.546-.663-.975-.468-.429-1.248-.702-.741-.273-1.794-.273h-4.212zm1.13-4.563h3.823q2.34 0 3.47-1.014 1.17-1.014 1.17-2.418 0-.741-.35-1.248-.312-.546-.858-.858-.546-.312-1.248-.429-.702-.156-1.443-.156-.82 0-1.755.078-.936.039-1.404.117l-1.404 5.928zM176.982 54h-5.772l4.875-20.514h5.811L176.982 54zm2.808-23.01q-1.209 0-2.184-.702-.975-.741-.975-2.223 0-.819.312-1.521.351-.741.897-1.248.546-.546 1.248-.858.741-.312 1.56-.312 1.21 0 2.184.741.975.702.975 2.184 0 .819-.35 1.56-.313.702-.859 1.248-.546.507-1.287.819-.702.312-1.52.312zm8.042-2.613l6.045-.936-1.482 6.045h6.474l-1.17 4.758h-6.435l-1.716 7.176q-.234.897-.312 1.677-.039.78.195 1.365.273.546.897.858.624.312 1.716.312.936 0 1.794-.156.897-.195 1.794-.507l.43 4.446q-1.17.429-2.536.741-1.365.312-3.237.312-2.69 0-4.173-.78-1.482-.819-2.106-2.184-.624-1.404-.546-3.198.078-1.794.546-3.783l3.822-16.146zM199.04 45.81q0-2.652.859-4.992.858-2.34 2.457-4.095 1.599-1.755 3.86-2.769 2.302-1.014 5.11-1.014 1.755 0 3.12.351 1.404.312 2.535.858l-1.99 4.524q-.78-.312-1.637-.546-.82-.273-2.028-.273-2.925 0-4.602 1.989-1.677 1.95-1.677 5.343 0 1.989.858 3.237.858 1.209 3.159 1.209 1.13 0 2.184-.234 1.053-.234 1.872-.585l.429 4.641q-1.092.429-2.418.741-1.287.351-3.16.351-2.417 0-4.094-.702-1.677-.702-2.77-1.872-1.091-1.209-1.598-2.808-.468-1.599-.468-3.354zm25.86 8.736q-2.066 0-3.587-.624-1.521-.624-2.535-1.755-.975-1.131-1.482-2.652-.507-1.56-.507-3.432 0-2.34.74-4.68.78-2.34 2.263-4.212 1.482-1.872 3.627-3.042 2.145-1.209 4.914-1.209 2.028 0 3.549.624 1.56.624 2.535 1.755 1.014 1.131 1.52 2.691.508 1.521.508 3.393 0 2.34-.741 4.68t-2.184 4.212q-1.443 1.872-3.627 3.081-2.145 1.17-4.992 1.17zm2.887-16.692q-1.287 0-2.262.741-.975.741-1.638 1.872-.663 1.131-1.014 2.496-.312 1.326-.312 2.535 0 1.989.624 3.081.624 1.053 2.262 1.053 1.287 0 2.262-.741.975-.741 1.638-1.872.663-1.131.975-2.457.35-1.365.35-2.574 0-1.989-.623-3.042-.624-1.092-2.262-1.092zM243.785 54h-5.772l4.875-20.514h5.811L243.785 54zm2.808-23.01q-1.209 0-2.184-.702-.975-.741-.975-2.223 0-.819.312-1.521.351-.741.897-1.248.546-.546 1.248-.858.741-.312 1.56-.312 1.21 0 2.184.741.975.702.975 2.184 0 .819-.35 1.56-.313.702-.859 1.248-.546.507-1.287.819-.702.312-1.52.312zm7.184 3.432q.663-.195 1.443-.429.82-.273 1.794-.468 1.014-.234 2.223-.351 1.248-.156 2.808-.156 4.602 0 6.318 2.652 1.716 2.652.585 7.254L266.296 54h-5.81l2.573-10.842q.234-1.014.351-1.95.156-.975 0-1.677-.156-.741-.74-1.17-.547-.468-1.717-.468-1.13 0-2.3.234L254.868 54h-5.81l4.718-19.578zm47.956 18.408q-1.599.78-3.549 1.248-1.95.468-4.758.468-2.418 0-4.446-.78-1.989-.819-3.432-2.301-1.404-1.482-2.184-3.588-.78-2.145-.78-4.797 0-3.042 1.053-6.045 1.092-3.003 3.16-5.343 2.105-2.379 5.108-3.861 3.042-1.482 6.981-1.482 1.872 0 3.666.429 1.833.429 3.822 1.521l-2.184 4.719q-1.638-.858-2.925-1.17-1.287-.312-2.769-.312-2.223 0-4.017.897-1.755.897-3.042 2.457-1.248 1.521-1.91 3.549-.664 2.028-.664 4.29 0 3.432 1.482 4.992 1.521 1.56 4.33 1.56 1.871 0 3.431-.39 1.6-.39 2.964-1.014l.663 4.953zm22.157-7.683q-.545 2.223-.311 4.485.234 2.223.897 3.978l-5.187.741q-.234-.468-.43-.897-.194-.429-.39-.975-1.091.897-2.417 1.482-1.326.585-2.964.585-1.95 0-3.354-.663-1.365-.702-2.262-1.833-.858-1.17-1.248-2.691-.39-1.56-.39-3.315 0-2.691.936-5.07.975-2.379 2.652-4.134 1.716-1.794 4.017-2.808 2.3-1.014 4.992-1.014.35 0 1.209.039.897.039 2.028.195 1.13.117 2.379.429 1.248.312 2.379.858l-2.535 10.608zm-4.055-7.176q-.507-.078-.936-.117-.39-.039-.975-.039-1.326 0-2.496.663-1.131.663-1.99 1.755-.857 1.053-1.364 2.457-.468 1.404-.468 2.925 0 1.872.624 2.964.624 1.092 2.3 1.092.898 0 1.6-.351.74-.351 1.56-1.17.078-.975.234-2.028.195-1.092.39-1.989l1.52-6.162zm14.425 11.895q1.99 0 2.73-.546.741-.585.741-1.248 0-.429-.156-.741-.117-.312-.429-.585-.312-.273-.858-.546-.546-.312-1.404-.702-.975-.429-1.833-.897-.858-.507-1.52-1.17-.625-.702-1.015-1.56-.35-.897-.35-2.106 0-3.159 2.3-4.992 2.34-1.833 6.786-1.833 2.106 0 3.744.468 1.638.468 2.652 1.014l-1.989 4.329q-.819-.429-2.106-.819-1.287-.39-2.535-.39-.546 0-1.092.078-.507.039-.975.234-.429.195-.702.546-.273.351-.273.936 0 .78.585 1.17.624.39 1.716.936 1.521.741 2.535 1.365 1.014.624 1.6 1.326.623.702.896 1.599t.273 2.106q0 1.248-.546 2.457-.507 1.209-1.638 2.145-1.13.936-2.886 1.521-1.755.585-4.212.585-1.52 0-2.769-.195-1.209-.195-2.145-.468-.936-.312-1.599-.624-.624-.312-.975-.507l1.99-4.446q.662.39 2.066.975t3.393.585zm25.99-16.731q1.678 0 2.887.507 1.209.468 1.989 1.365.78.858 1.17 2.067.39 1.209.39 2.613 0 1.638-.39 3.237L363.644 54h-5.811l2.574-10.842q.156-.663.273-1.404.156-.741.156-1.404 0-1.014-.546-1.716-.507-.741-1.99-.741-.623 0-1.208.078-.546.078-1.092.195L352.217 54h-5.811l7.02-29.328 6.045-.936-2.38 9.789q.78-.156 1.56-.273.82-.117 1.6-.117zm-191.994 31.34q2 0 3.06.729 1.074.729 1.074 2.279 0 .808-.291 1.391-.279.57-.822.94-.543.358-1.325.53-.782.173-1.789.173h-.834v3.233h-1.67V64.7q.583-.132 1.285-.172.716-.053 1.312-.053zm.12 1.444q-.637 0-1.047.04v3.127h.808q1.206 0 1.855-.331.65-.345.65-1.286 0-.45-.173-.755-.172-.305-.477-.477t-.729-.238q-.41-.08-.888-.08zm4.712 4.399q0-.914.265-1.603.279-.689.73-1.14.45-.463 1.033-.688.583-.239 1.192-.239 1.431 0 2.226.888.808.888.808 2.65 0 .132-.013.305 0 .159-.013.291h-4.571q.066.835.583 1.299.53.45 1.523.45.583 0 1.06-.106.49-.106.769-.225l.212 1.312q-.133.066-.371.145-.225.067-.53.12-.292.066-.636.106-.345.04-.702.04-.915 0-1.59-.266-.676-.278-1.113-.755-.438-.49-.65-1.14-.212-.662-.212-1.444zm4.651-.715q0-.331-.093-.623-.092-.305-.278-.517-.172-.225-.437-.344-.252-.133-.61-.133-.37 0-.649.146-.278.133-.477.358-.185.225-.291.517-.106.291-.146.596h2.981zm2.906.715q0-.914.265-1.603.278-.689.729-1.14.45-.463 1.033-.688.583-.239 1.193-.239 1.43 0 2.226.888.808.888.808 2.65 0 .132-.013.305 0 .159-.013.291H182.3q.067.835.583 1.299.53.45 1.524.45.583 0 1.06-.106.49-.106.769-.225l.212 1.312q-.133.066-.371.145-.226.067-.53.12-.292.066-.636.106-.345.04-.703.04-.914 0-1.59-.266-.675-.278-1.113-.755-.437-.49-.649-1.14-.212-.662-.212-1.444zm4.65-.715q0-.331-.092-.623-.093-.305-.278-.517-.172-.225-.437-.344-.252-.133-.61-.133-.37 0-.65.146-.277.133-.476.358-.186.225-.292.517-.106.291-.145.596h2.98zm7.239-1.339q-.198-.066-.556-.132-.345-.08-.808-.08-.265 0-.57.054-.292.053-.41.092v5.552h-1.604v-6.598q.464-.173 1.153-.319.702-.158 1.55-.158.159 0 .37.026.213.013.425.053.212.026.41.08.2.04.319.079l-.279 1.351zm.306.968h3.563v1.47h-3.564v-1.47zm4.802-4.24l1.603-.265v2.093h2.464v1.339h-2.464v2.822q0 .835.265 1.192.265.358.9.358.438 0 .77-.093.344-.093.543-.172l.265 1.272q-.279.12-.73.238-.45.133-1.06.133-.741 0-1.245-.199-.49-.199-.781-.57-.292-.384-.411-.914-.12-.543-.12-1.232v-6.002zm11.729 5.287q0 .821-.238 1.497-.239.676-.676 1.153-.437.476-1.06.741-.61.266-1.352.266-.742 0-1.351-.266-.61-.264-1.047-.741-.437-.478-.689-1.153-.238-.676-.238-1.497 0-.822.238-1.484.252-.676.69-1.153.45-.477 1.06-.729.609-.265 1.337-.265.73 0 1.339.265.622.252 1.06.729.437.477.675 1.153.252.662.252 1.484zm-1.643 0q0-1.034-.45-1.63-.438-.61-1.233-.61-.795 0-1.245.61-.437.596-.437 1.63 0 1.046.437 1.656.45.61 1.245.61.795 0 1.233-.61.45-.61.45-1.656zm2.579-1.047h3.565v1.47h-3.565v-1.47zm7.559-4.757q2 0 3.06.729 1.074.729 1.074 2.279 0 .808-.292 1.391-.278.57-.821.94-.543.358-1.325.53-.782.173-1.789.173h-.835v3.233h-1.67V64.7q.584-.132 1.286-.172.716-.053 1.312-.053zm.12 1.444q-.637 0-1.048.04v3.127h.809q1.205 0 1.855-.331.649-.345.649-1.286 0-.45-.172-.755-.173-.305-.477-.477-.305-.172-.73-.238-.41-.08-.887-.08zm4.712 4.399q0-.914.265-1.603.279-.689.729-1.14.45-.463 1.034-.688.583-.239 1.192-.239 1.431 0 2.226.888.808.888.808 2.65 0 .132-.013.305 0 .159-.013.291h-4.571q.066.835.583 1.299.53.45 1.523.45.583 0 1.06-.106.49-.106.769-.225l.212 1.312q-.133.066-.371.145-.225.067-.53.12-.292.066-.636.106-.345.04-.702.04-.915 0-1.59-.266-.676-.278-1.113-.755-.438-.49-.65-1.14-.212-.662-.212-1.444zm4.651-.715q0-.331-.093-.623-.092-.305-.278-.517-.172-.225-.437-.344-.252-.133-.61-.133-.37 0-.649.146-.278.133-.477.358-.185.225-.291.517-.106.291-.146.596h2.981zm2.906.715q0-.914.265-1.603.278-.689.729-1.14.45-.463 1.033-.688.583-.239 1.193-.239 1.43 0 2.226.888.808.888.808 2.65 0 .132-.013.305 0 .159-.014.291h-4.57q.065.835.582 1.299.53.45 1.524.45.583 0 1.06-.106.49-.106.768-.225l.212 1.312q-.132.066-.37.145-.226.067-.53.12-.292.066-.637.106-.344.04-.702.04-.914 0-1.59-.266-.676-.278-1.113-.755-.437-.49-.649-1.14-.212-.662-.212-1.444zm4.65-.715q0-.331-.092-.623-.093-.305-.278-.517-.173-.225-.438-.344-.251-.133-.61-.133-.37 0-.648.146-.279.133-.477.358-.186.225-.292.517-.106.291-.146.596h2.982zm7.239-1.339q-.198-.066-.556-.132-.345-.08-.808-.08-.265 0-.57.054-.292.053-.411.092v5.552h-1.603v-6.598q.464-.173 1.153-.319.702-.158 1.55-.158.159 0 .37.026.213.013.425.053.212.026.41.08.2.04.319.079l-.279 1.351zm4.542 5.486v-9.182h5.896v1.418h-4.227v2.265h3.763v1.391h-3.763v2.69h4.545v1.418h-6.214zm10.096.132q-.716-.013-1.193-.159-.464-.145-.742-.41-.278-.279-.397-.676-.106-.41-.106-.927v-7.977l1.603-.265v7.937q0 .291.04.49.053.199.172.345.12.132.318.212.212.066.53.106l-.225 1.324zm1.138-3.564q0-.914.264-1.603.279-.689.73-1.14.45-.463 1.033-.688.583-.239 1.192-.239 1.431 0 2.226.888.808.888.808 2.65 0 .132-.013.305 0 .159-.013.291h-4.571q.066.835.583 1.299.53.45 1.524.45.583 0 1.06-.106.49-.106.768-.225l.212 1.312q-.132.066-.371.145-.225.067-.53.12-.291.066-.636.106-.344.04-.702.04-.914 0-1.59-.266-.676-.278-1.113-.755-.437-.49-.65-1.14-.211-.662-.211-1.444zm4.65-.715q0-.331-.092-.623-.093-.305-.279-.517-.172-.225-.437-.344-.252-.133-.61-.133-.37 0-.649.146-.278.133-.477.358-.185.225-.291.517-.106.291-.146.596h2.981zm2.906.689q0-.769.239-1.431.238-.676.675-1.166.45-.49 1.087-.769.636-.278 1.43-.278.981 0 1.856.358l-.345 1.312q-.278-.12-.636-.2-.344-.079-.742-.079-.94 0-1.43.597-.49.583-.49 1.656 0 1.033.463 1.643.464.596 1.563.596.411 0 .809-.08.397-.079.689-.198l.225 1.325q-.265.132-.808.238-.53.106-1.1.106-.888 0-1.55-.265-.65-.278-1.087-.755-.424-.49-.636-1.153-.212-.675-.212-1.457zm6.568-5.3l1.603-.265v2.093h2.464v1.339h-2.464v2.822q0 .835.265 1.192.265.358.9.358.438 0 .77-.093.344-.093.543-.172l.265 1.272q-.279.12-.73.238-.45.133-1.06.133-.741 0-1.245-.199-.49-.199-.781-.57-.292-.384-.411-.914-.12-.543-.12-1.232v-6.002zm9.566 3.272q-.2-.066-.557-.132-.344-.08-.808-.08-.265 0-.57.054-.291.053-.41.092v5.552h-1.604v-6.598q.464-.173 1.153-.319.702-.158 1.55-.158.16 0 .371.026.212.013.424.053.212.026.41.08.2.04.319.079l-.278 1.351zm7.65 2.015q0 .821-.24 1.497-.238.676-.675 1.153-.437.476-1.06.741-.61.266-1.351.266-.742 0-1.352-.266-.61-.264-1.047-.741-.437-.478-.689-1.153-.238-.676-.238-1.497 0-.822.238-1.484.252-.676.69-1.153.45-.477 1.06-.729.609-.265 1.338-.265.728 0 1.338.265.623.252 1.06.729.437.477.676 1.153.251.662.251 1.484zm-1.644 0q0-1.034-.45-1.63-.437-.61-1.232-.61-.795 0-1.246.61-.437.596-.437 1.63 0 1.046.437 1.656.45.61 1.246.61.795 0 1.232-.61.45-.61.45-1.656zm3.295-3.233q.464-.133 1.206-.252.742-.12 1.643-.12.848 0 1.418.239.57.225.9.65.345.41.478 1.006.145.583.145 1.286v3.895h-1.603v-3.644q0-.556-.08-.94-.066-.398-.238-.636-.159-.252-.45-.358-.279-.12-.69-.12-.304 0-.635.04-.332.04-.49.067v5.591h-1.604v-6.704zm9.38 6.704h-1.603v-6.93h1.603v6.93zm.173-8.957q0 .45-.292.716-.291.265-.689.265-.41 0-.702-.265t-.292-.716q0-.464.292-.729.291-.265.702-.265.398 0 .689.265.292.265.292.729zm1.476 5.499q0-.769.238-1.431.238-.676.676-1.166.45-.49 1.086-.769.636-.278 1.431-.278.98 0 1.855.358l-.344 1.312q-.279-.12-.636-.2-.345-.079-.742-.079-.941 0-1.431.597-.49.583-.49 1.656 0 1.033.463 1.643.464.596 1.564.596.41 0 .808-.08.397-.079.689-.198l.225 1.325q-.265.132-.808.238-.53.106-1.1.106-.888 0-1.55-.265-.65-.278-1.087-.755-.424-.49-.636-1.153-.212-.675-.212-1.457zm13.887 3.657q-1.034 0-1.855-.318-.822-.318-1.392-.928-.57-.623-.874-1.51-.305-.888-.305-2.04 0-1.153.344-2.041.358-.888.968-1.497.61-.623 1.43-.941.822-.318 1.763-.318.57 0 1.033.093.464.079.809.185.344.106.57.225.225.12.317.173l-.49 1.364q-.318-.198-.914-.37-.583-.186-1.272-.186-.596 0-1.113.212-.517.199-.901.61-.371.41-.583 1.033-.212.623-.212 1.444 0 .729.159 1.338.172.61.517 1.06.344.438.874.69.53.238 1.272.238.888 0 1.444-.172.557-.186.862-.345l.45 1.365q-.159.106-.437.212-.265.106-.636.212-.371.093-.835.146-.464.066-.994.066zm6.739-1.325q.742 0 1.127-.08V70.77q-.133-.04-.385-.08-.251-.04-.556-.04-.265 0-.543.04-.265.04-.49.146-.213.106-.345.305-.133.185-.133.477 0 .57.358.795.358.212.967.212zm-.132-5.976q.795 0 1.338.199t.861.556q.332.358.464.875.146.503.146 1.113v4.2q-.371.08-1.126.185-.742.12-1.683.12-.623 0-1.14-.12-.516-.119-.887-.384-.358-.265-.57-.689-.199-.424-.199-1.046 0-.597.225-1.007.239-.411.636-.663.398-.265.915-.371.53-.12 1.1-.12.264 0 .556.04.291.027.623.107v-.265q0-.279-.067-.53-.066-.252-.238-.438-.16-.198-.437-.304-.265-.106-.676-.106-.557 0-1.02.079-.464.08-.756.186l-.198-1.299q.304-.106.887-.212t1.246-.106zm6.496 5.949q.635 0 .927-.145.291-.16.291-.53 0-.345-.318-.57-.305-.226-1.02-.49-.437-.16-.808-.332-.358-.185-.623-.424-.265-.238-.424-.57-.146-.344-.146-.834 0-.954.702-1.498.703-.556 1.908-.556.61 0 1.166.12.557.105.835.211l-.291 1.299q-.265-.12-.676-.212-.41-.106-.954-.106-.49 0-.795.172-.305.159-.305.503 0 .173.053.305.066.133.212.252.146.106.384.225.239.106.583.226.57.212.968.424.397.198.649.463.265.252.384.583.12.332.12.795 0 .994-.743 1.51-.728.504-2.093.504-.914 0-1.47-.159-.557-.145-.783-.238l.279-1.338q.357.145.848.278.503.132 1.14.132zm4.319 1.153V63.733l1.603-.265V66.9q.265-.093.61-.16.358-.066.702-.066.835 0 1.378.239.557.225.888.65.331.41.464.993.145.583.145 1.298v3.896h-1.603v-3.644q0-.556-.08-.94-.066-.398-.238-.636-.159-.252-.437-.358-.278-.12-.69-.12-.317 0-.648.067-.332.066-.49.119v5.512h-1.604z" fill="#fff"/><path d="M15 15h29.7a39 39 0 0 0 0 64H15zm52 0a32 32 0 0 0 0 64 32 32 0 0 0 0-64m52 0H89.3a39 39 0 0 1 0 64H119z" fill="#f7931a"/><path d="M77.313 36.356c-1.436-4.058-5.373-4.557-10.004-3.824l-1.439-5.768-3.51.875 1.4 5.616c-.923.23-1.862.484-2.795.736l-1.409-5.653-3.509.875 1.437 5.767c-.756.205-1.5.405-2.227.587l-.005-.018-4.843 1.206.936 3.75s2.58-.697 2.55-.638c1.421-.354 2.09.356 2.402 1.035l1.639 6.57a3.03 3.03 0 0 1 .377-.067l-.37.093 2.294 9.205c.049.463-.036 1.242-1.03 1.492.055.028-2.552.635-2.552.635l.348 4.367 4.569-1.14c.85-.21 1.69-.404 2.513-.604l1.456 5.833 3.507-.873-1.439-5.772c.968-.22 1.902-.445 2.812-.673l1.43 5.746 3.511-.876-1.45-5.823c5.818-1.81 9.578-4.328 8.71-9.999-.7-4.566-3.296-6.034-6.847-6.003 1.777-1.544 2.595-3.688 1.538-6.657zm-1.802 13.699c1.09 4.359-6.499 5.724-8.878 6.32l-1.926-7.73c2.38-.593 9.671-3.137 10.804 1.41zM71.16 39.557c.987 3.967-5.353 5.056-7.335 5.55l-1.748-7.01c1.982-.494 8.05-2.677 9.083 1.46z" fill="#fff"/><path d="M154.979 53.351q-2.34 0-4.797-.195t-4.446-.624l6.24-26.13q2.223-.429 4.64-.585 2.458-.156 4.486-.156 2.34 0 4.017.507 1.716.468 2.769 1.287 1.092.819 1.599 1.95.546 1.092.546 2.34 0 .858-.195 1.794-.156.936-.702 1.872-.507.897-1.443 1.716-.897.819-2.38 1.482 1.756.78 2.575 2.145.819 1.326.819 2.964 0 1.872-.741 3.627-.741 1.716-2.38 3.081-1.637 1.326-4.25 2.145-2.613.78-6.357.78zm-.546-12.168l-1.677 7.02q.624.117 1.56.195.975.039 1.794.039 1.17 0 2.3-.156 1.17-.195 2.068-.663.936-.468 1.52-1.287.586-.819.586-2.106 0-.546-.234-1.092-.195-.546-.663-.975-.468-.429-1.248-.702-.741-.273-1.794-.273h-4.212zm1.13-4.563h3.823q2.34 0 3.47-1.014 1.17-1.014 1.17-2.418 0-.741-.35-1.248-.312-.546-.858-.858-.546-.312-1.248-.429-.702-.156-1.443-.156-.82 0-1.755.078-.936.039-1.404.117l-1.404 5.928zM176.982 53h-5.772l4.875-20.514h5.811L176.982 53zm2.808-23.01q-1.209 0-2.184-.702-.975-.741-.975-2.223 0-.819.312-1.521.351-.741.897-1.248.546-.546 1.248-.858.741-.312 1.56-.312 1.21 0 2.184.741.975.702.975 2.184 0 .819-.35 1.56-.313.702-.859 1.248-.546.507-1.287.819-.702.312-1.52.312zm8.042-2.613l6.045-.936-1.482 6.045h6.474l-1.17 4.758h-6.435l-1.716 7.176q-.234.897-.312 1.677-.039.78.195 1.365.273.546.897.858.624.312 1.716.312.936 0 1.794-.156.897-.195 1.794-.507l.43 4.446q-1.17.429-2.536.741-1.365.312-3.237.312-2.69 0-4.173-.78-1.482-.819-2.106-2.184-.624-1.404-.546-3.198.078-1.794.546-3.783l3.822-16.146zM199.04 44.81q0-2.652.859-4.992.858-2.34 2.457-4.095 1.599-1.755 3.86-2.769 2.302-1.014 5.11-1.014 1.755 0 3.12.351 1.404.312 2.535.858l-1.99 4.524q-.78-.312-1.637-.546-.82-.273-2.028-.273-2.925 0-4.602 1.989-1.677 1.95-1.677 5.343 0 1.989.858 3.237.858 1.209 3.159 1.209 1.13 0 2.184-.234 1.053-.234 1.872-.585l.429 4.641q-1.092.429-2.418.741-1.287.351-3.16.351-2.417 0-4.094-.702-1.677-.702-2.77-1.872-1.091-1.209-1.598-2.808-.468-1.599-.468-3.354zm25.86 8.736q-2.066 0-3.587-.624-1.521-.624-2.535-1.755-.975-1.131-1.482-2.652-.507-1.56-.507-3.432 0-2.34.74-4.68.78-2.34 2.263-4.212 1.482-1.872 3.627-3.042 2.145-1.209 4.914-1.209 2.028 0 3.549.624 1.56.624 2.535 1.755 1.014 1.131 1.52 2.691.508 1.521.508 3.393 0 2.34-.741 4.68t-2.184 4.212q-1.443 1.872-3.627 3.081-2.145 1.17-4.992 1.17zm2.887-16.692q-1.287 0-2.262.741-.975.741-1.638 1.872-.663 1.131-1.014 2.496-.312 1.326-.312 2.535 0 1.989.624 3.081.624 1.053 2.262 1.053 1.287 0 2.262-.741.975-.741 1.638-1.872.663-1.131.975-2.457.35-1.365.35-2.574 0-1.989-.623-3.042-.624-1.092-2.262-1.092zM243.785 53h-5.772l4.875-20.514h5.811L243.785 53zm2.808-23.01q-1.209 0-2.184-.702-.975-.741-.975-2.223 0-.819.312-1.521.351-.741.897-1.248.546-.546 1.248-.858.741-.312 1.56-.312 1.21 0 2.184.741.975.702.975 2.184 0 .819-.35 1.56-.313.702-.859 1.248-.546.507-1.287.819-.702.312-1.52.312zm7.184 3.432q.663-.195 1.443-.429.82-.273 1.794-.468 1.014-.234 2.223-.351 1.248-.156 2.808-.156 4.602 0 6.318 2.652 1.716 2.652.585 7.254L266.296 53h-5.81l2.573-10.842q.234-1.014.351-1.95.156-.975 0-1.677-.156-.741-.74-1.17-.547-.468-1.717-.468-1.13 0-2.3.234L254.868 53h-5.81l4.718-19.578zm47.956 18.408q-1.599.78-3.549 1.248-1.95.468-4.758.468-2.418 0-4.446-.78-1.989-.819-3.432-2.301-1.404-1.482-2.184-3.588-.78-2.145-.78-4.797 0-3.042 1.053-6.045 1.092-3.003 3.16-5.343 2.105-2.379 5.108-3.861 3.042-1.482 6.981-1.482 1.872 0 3.666.429 1.833.429 3.822 1.521l-2.184 4.719q-1.638-.858-2.925-1.17-1.287-.312-2.769-.312-2.223 0-4.017.897-1.755.897-3.042 2.457-1.248 1.521-1.91 3.549-.664 2.028-.664 4.29 0 3.432 1.482 4.992 1.521 1.56 4.33 1.56 1.871 0 3.431-.39 1.6-.39 2.964-1.014l.663 4.953zm22.157-7.683q-.545 2.223-.311 4.485.234 2.223.897 3.978l-5.187.741q-.234-.468-.43-.897-.194-.429-.39-.975-1.091.897-2.417 1.482-1.326.585-2.964.585-1.95 0-3.354-.663-1.365-.702-2.262-1.833-.858-1.17-1.248-2.691-.39-1.56-.39-3.315 0-2.691.936-5.07.975-2.379 2.652-4.134 1.716-1.794 4.017-2.808 2.3-1.014 4.992-1.014.35 0 1.209.039.897.039 2.028.195 1.13.117 2.379.429 1.248.312 2.379.858l-2.535 10.608zm-4.055-7.176q-.507-.078-.936-.117-.39-.039-.975-.039-1.326 0-2.496.663-1.131.663-1.99 1.755-.857 1.053-1.364 2.457-.468 1.404-.468 2.925 0 1.872.624 2.964.624 1.092 2.3 1.092.898 0 1.6-.351.74-.351 1.56-1.17.078-.975.234-2.028.195-1.092.39-1.989l1.52-6.162zm14.425 11.895q1.99 0 2.73-.546.741-.585.741-1.248 0-.429-.156-.741-.117-.312-.429-.585-.312-.273-.858-.546-.546-.312-1.404-.702-.975-.429-1.833-.897-.858-.507-1.52-1.17-.625-.702-1.015-1.56-.35-.897-.35-2.106 0-3.159 2.3-4.992 2.34-1.833 6.786-1.833 2.106 0 3.744.468 1.638.468 2.652 1.014l-1.989 4.329q-.819-.429-2.106-.819-1.287-.39-2.535-.39-.546 0-1.092.078-.507.039-.975.234-.429.195-.702.546-.273.351-.273.936 0 .78.585 1.17.624.39 1.716.936 1.521.741 2.535 1.365 1.014.624 1.6 1.326.623.702.896 1.599t.273 2.106q0 1.248-.546 2.457-.507 1.209-1.638 2.145-1.13.936-2.886 1.521-1.755.585-4.212.585-1.52 0-2.769-.195-1.209-.195-2.145-.468-.936-.312-1.599-.624-.624-.312-.975-.507l1.99-4.446q.662.39 2.066.975t3.393.585zm25.99-16.731q1.678 0 2.887.507 1.209.468 1.989 1.365.78.858 1.17 2.067.39 1.209.39 2.613 0 1.638-.39 3.237L363.644 53h-5.811l2.574-10.842q.156-.663.273-1.404.156-.741.156-1.404 0-1.014-.546-1.716-.507-.741-1.99-.741-.623 0-1.208.078-.546.078-1.092.195L352.217 53h-5.811l7.02-29.328 6.045-.936-2.38 9.789q.78-.156 1.56-.273.82-.117 1.6-.117z" fill="#4d4d4d"/><path d="M168.256 63.475q2 0 3.06.729 1.074.729 1.074 2.279 0 .808-.291 1.391-.279.57-.822.94-.543.358-1.325.53-.782.173-1.789.173h-.834v3.233h-1.67V63.7q.583-.132 1.285-.172.716-.053 1.312-.053zm.12 1.444q-.637 0-1.047.04v3.127h.808q1.206 0 1.855-.331.65-.345.65-1.285 0-.451-.173-.756-.172-.305-.477-.477t-.729-.238q-.41-.08-.888-.08zm4.712 4.399q0-.914.265-1.603.279-.689.73-1.14.45-.463 1.033-.688.583-.239 1.192-.239 1.431 0 2.226.888.808.888.808 2.65 0 .132-.013.305 0 .159-.013.291h-4.571q.066.835.583 1.299.53.45 1.523.45.583 0 1.06-.106.49-.106.769-.225l.212 1.312q-.133.066-.371.145-.225.067-.53.12-.292.066-.636.106-.345.04-.702.04-.915 0-1.59-.266-.676-.278-1.113-.755-.438-.49-.65-1.14-.212-.662-.212-1.444zm4.651-.715q0-.331-.093-.623-.092-.305-.278-.517-.172-.225-.437-.344-.252-.133-.61-.133-.37 0-.649.146-.278.133-.477.358-.185.225-.291.517-.106.291-.146.596h2.981zm2.906.715q0-.914.265-1.603.278-.689.729-1.14.45-.463 1.033-.688.583-.239 1.193-.239 1.43 0 2.226.888.808.888.808 2.65 0 .132-.013.305 0 .159-.013.291H182.3q.067.835.583 1.299.53.45 1.524.45.583 0 1.06-.106.49-.106.769-.225l.212 1.312q-.133.066-.371.145-.226.067-.53.12-.292.066-.636.106-.345.04-.703.04-.914 0-1.59-.266-.675-.278-1.113-.755-.437-.49-.649-1.14-.212-.662-.212-1.444zm4.65-.715q0-.331-.092-.623-.093-.305-.278-.517-.172-.225-.437-.344-.252-.133-.61-.133-.37 0-.65.146-.277.133-.476.358-.186.225-.292.517-.106.291-.145.596h2.98zm7.239-1.339q-.198-.066-.556-.132-.345-.08-.808-.08-.265 0-.57.054-.292.053-.41.092v5.552h-1.604v-6.598q.464-.173 1.153-.319.702-.158 1.55-.158.159 0 .37.026.213.013.425.053.212.026.41.08.2.04.319.079l-.279 1.351zm.306.968h3.563v1.47h-3.564v-1.47zm4.802-4.24l1.603-.265v2.093h2.464v1.339h-2.464v2.822q0 .835.265 1.192.265.358.9.358.438 0 .77-.093.344-.093.543-.172l.265 1.272q-.279.12-.73.238-.45.133-1.06.133-.741 0-1.245-.199-.49-.199-.781-.57-.292-.384-.411-.914-.12-.543-.12-1.232v-6.002zm11.729 5.287q0 .821-.238 1.497-.239.676-.676 1.153-.437.476-1.06.741-.61.266-1.352.266-.742 0-1.351-.266-.61-.264-1.047-.741-.437-.478-.689-1.153-.238-.676-.238-1.497 0-.822.238-1.484.252-.676.69-1.153.45-.477 1.06-.729.609-.265 1.337-.265.73 0 1.339.265.622.252 1.06.729.437.477.675 1.153.252.662.252 1.484zm-1.643 0q0-1.034-.45-1.63-.438-.61-1.233-.61-.795 0-1.245.61-.437.596-.437 1.63 0 1.046.437 1.656.45.61 1.245.61.795 0 1.233-.61.45-.61.45-1.656zm2.579-1.047h3.565v1.47h-3.565v-1.47zm7.559-4.757q2 0 3.06.729 1.074.729 1.074 2.279 0 .808-.292 1.391-.278.57-.821.94-.543.358-1.325.53-.782.173-1.789.173h-.835v3.233h-1.67V63.7q.584-.132 1.286-.172.716-.053 1.312-.053zm.12 1.444q-.637 0-1.048.04v3.127h.809q1.205 0 1.855-.331.649-.345.649-1.285 0-.451-.172-.756-.173-.305-.477-.477-.305-.172-.73-.238-.41-.08-.887-.08zm4.712 4.399q0-.914.265-1.603.279-.689.729-1.14.45-.463 1.034-.688.583-.239 1.192-.239 1.431 0 2.226.888.808.888.808 2.65 0 .132-.013.305 0 .159-.013.291h-4.571q.066.835.583 1.299.53.45 1.523.45.583 0 1.06-.106.49-.106.769-.225l.212 1.312q-.133.066-.371.145-.225.067-.53.12-.292.066-.636.106-.345.04-.702.04-.915 0-1.59-.266-.676-.278-1.113-.755-.438-.49-.65-1.14-.212-.662-.212-1.444zm4.651-.715q0-.331-.093-.623-.092-.305-.278-.517-.172-.225-.437-.344-.252-.133-.61-.133-.37 0-.649.146-.278.133-.477.358-.185.225-.291.517-.106.291-.146.596h2.981zm2.906.715q0-.914.265-1.603.278-.689.729-1.14.45-.463 1.033-.688.583-.239 1.193-.239 1.43 0 2.226.888.808.888.808 2.65 0 .132-.013.305 0 .159-.014.291h-4.57q.065.835.582 1.299.53.45 1.524.45.583 0 1.06-.106.49-.106.768-.225l.212 1.312q-.132.066-.37.145-.226.067-.53.12-.292.066-.637.106-.344.04-.702.04-.914 0-1.59-.266-.676-.278-1.113-.755-.437-.49-.649-1.14-.212-.662-.212-1.444zm4.65-.715q0-.331-.092-.623-.093-.305-.278-.517-.173-.225-.438-.344-.251-.133-.61-.133-.37 0-.648.146-.279.133-.477.358-.186.225-.292.517-.106.291-.146.596h2.982zm7.239-1.339q-.198-.066-.556-.132-.345-.08-.808-.08-.265 0-.57.054-.292.053-.411.092v5.552h-1.603v-6.598q.464-.173 1.153-.319.702-.158 1.55-.158.159 0 .37.026.213.013.425.053.212.026.41.08.2.04.319.079l-.279 1.351zm4.542 5.486v-9.182h5.896v1.418h-4.227v2.265h3.763v1.391h-3.763v2.69h4.545v1.418h-6.214zm10.096.132q-.716-.013-1.193-.159-.464-.145-.742-.41-.278-.279-.397-.676-.106-.41-.106-.927v-7.977l1.603-.265v7.937q0 .291.04.49.053.199.172.345.12.132.318.212.212.066.53.106l-.225 1.324zm1.138-3.564q0-.914.264-1.603.279-.689.73-1.14.45-.463 1.033-.688.583-.239 1.192-.239 1.431 0 2.226.888.808.888.808 2.65 0 .132-.013.305 0 .159-.013.291h-4.571q.066.835.583 1.299.53.45 1.524.45.583 0 1.06-.106.49-.106.768-.225l.212 1.312q-.132.066-.371.145-.225.067-.53.12-.291.066-.636.106-.344.04-.702.04-.914 0-1.59-.266-.676-.278-1.113-.755-.437-.49-.65-1.14-.211-.662-.211-1.444zm4.65-.715q0-.331-.092-.623-.093-.305-.279-.517-.172-.225-.437-.344-.252-.133-.61-.133-.37 0-.649.146-.278.133-.477.358-.185.225-.291.517-.106.291-.146.596h2.981zm2.906.689q0-.769.239-1.431.238-.676.675-1.166.45-.49 1.087-.769.636-.278 1.43-.278.981 0 1.856.358l-.345 1.312q-.278-.12-.636-.2-.344-.079-.742-.079-.94 0-1.43.597-.49.583-.49 1.656 0 1.033.463 1.643.464.596 1.563.596.411 0 .809-.08.397-.079.689-.198l.225 1.325q-.265.132-.808.238-.53.106-1.1.106-.888 0-1.55-.265-.65-.278-1.087-.755-.424-.49-.636-1.153-.212-.675-.212-1.457zm6.568-5.3l1.603-.265v2.093h2.464v1.339h-2.464v2.822q0 .835.265 1.192.265.358.9.358.438 0 .77-.093.344-.093.543-.172l.265 1.272q-.279.12-.73.238-.45.133-1.06.133-.741 0-1.245-.199-.49-.199-.781-.57-.292-.384-.411-.914-.12-.543-.12-1.232v-6.002zm9.566 3.272q-.2-.066-.557-.132-.344-.08-.808-.08-.265 0-.57.054-.291.053-.41.092v5.552h-1.604v-6.598q.464-.173 1.153-.319.702-.158 1.55-.158.16 0 .371.026.212.013.424.053.212.026.41.08.2.04.319.079l-.278 1.351zm7.65 2.015q0 .821-.24 1.497-.238.676-.675 1.153-.437.476-1.06.741-.61.266-1.351.266-.742 0-1.352-.266-.61-.264-1.047-.741-.437-.478-.689-1.153-.238-.676-.238-1.497 0-.822.238-1.484.252-.676.69-1.153.45-.477 1.06-.729.609-.265 1.338-.265.728 0 1.338.265.623.252 1.06.729.437.477.676 1.153.251.662.251 1.484zm-1.644 0q0-1.034-.45-1.63-.437-.61-1.232-.61-.795 0-1.246.61-.437.596-.437 1.63 0 1.046.437 1.656.45.61 1.246.61.795 0 1.232-.61.45-.61.45-1.656zm3.295-3.233q.464-.133 1.206-.252.742-.12 1.643-.12.848 0 1.418.239.57.225.9.65.345.41.478 1.006.145.583.145 1.286v3.895h-1.603v-3.644q0-.556-.08-.94-.066-.398-.238-.636-.159-.252-.45-.358-.279-.12-.69-.12-.304 0-.635.04-.332.04-.49.067v5.591h-1.604v-6.704zm9.38 6.704h-1.603v-6.93h1.603v6.93zm.173-8.957q0 .45-.292.716-.291.264-.689.264-.41 0-.702-.264-.292-.266-.292-.716 0-.464.292-.729.291-.265.702-.265.398 0 .689.265.292.265.292.729zm1.476 5.499q0-.769.238-1.431.238-.676.676-1.166.45-.49 1.086-.769.636-.278 1.431-.278.98 0 1.855.358l-.344 1.312q-.279-.12-.636-.2-.345-.079-.742-.079-.941 0-1.431.597-.49.583-.49 1.656 0 1.033.463 1.643.464.596 1.564.596.41 0 .808-.08.397-.079.689-.198l.225 1.325q-.265.132-.808.238-.53.106-1.1.106-.888 0-1.55-.265-.65-.278-1.087-.755-.424-.49-.636-1.153-.212-.675-.212-1.457zm13.887 3.657q-1.034 0-1.855-.318-.822-.318-1.392-.928-.57-.623-.874-1.51-.305-.888-.305-2.04 0-1.153.344-2.041.358-.888.968-1.497.61-.623 1.43-.941.822-.318 1.763-.318.57 0 1.033.093.464.079.809.185.344.106.57.225.225.12.317.173l-.49 1.364q-.318-.198-.914-.37-.583-.186-1.272-.186-.596 0-1.113.212-.517.199-.901.61-.371.41-.583 1.033-.212.623-.212 1.444 0 .729.159 1.338.172.61.517 1.06.344.438.874.69.53.238 1.272.238.888 0 1.444-.172.557-.186.862-.345l.45 1.365q-.159.106-.437.212-.265.106-.636.212-.371.093-.835.146-.464.066-.994.066zm6.739-1.325q.742 0 1.127-.08V69.77q-.133-.04-.385-.08-.251-.04-.556-.04-.265 0-.543.04-.265.04-.49.146-.213.106-.345.305-.133.185-.133.477 0 .57.358.795.358.212.967.212zm-.132-5.976q.795 0 1.338.199t.861.556q.332.358.464.875.146.503.146 1.113v4.2q-.371.08-1.126.185-.742.12-1.683.12-.623 0-1.14-.12-.516-.119-.887-.384-.358-.265-.57-.689-.199-.424-.199-1.046 0-.597.225-1.007.239-.411.636-.663.398-.265.915-.371.53-.12 1.1-.12.264 0 .556.04.291.027.623.107v-.265q0-.279-.067-.53-.066-.252-.238-.438-.16-.198-.437-.304-.265-.106-.676-.106-.557 0-1.02.079-.464.08-.756.186l-.198-1.299q.304-.106.887-.212t1.246-.106zm6.496 5.949q.635 0 .927-.145.291-.16.291-.53 0-.345-.318-.57-.305-.226-1.02-.49-.437-.16-.808-.332-.358-.185-.623-.424-.265-.238-.424-.57-.146-.344-.146-.834 0-.954.702-1.498.703-.556 1.908-.556.61 0 1.166.12.557.105.835.211l-.291 1.299q-.265-.12-.676-.212-.41-.106-.954-.106-.49 0-.795.172-.305.159-.305.503 0 .173.053.305.066.133.212.252.146.106.384.225.239.106.583.226.57.212.968.424.397.198.649.463.265.252.384.583.12.332.12.795 0 .994-.743 1.51-.728.504-2.093.504-.914 0-1.47-.159-.557-.145-.783-.238l.279-1.338q.357.145.848.278.503.132 1.14.132zm4.319 1.153V62.733l1.603-.265V65.9q.265-.093.61-.16.358-.066.702-.066.835 0 1.378.239.557.225.888.65.331.41.464.993.145.583.145 1.298v3.896h-1.603v-3.644q0-.556-.08-.94-.066-.398-.238-.636-.159-.252-.437-.358-.278-.12-.69-.12-.317 0-.648.067-.332.066-.49.119v5.512h-1.604z" fill="#85bb65"/></svg>